#!OML:ASF H:\Dans Jumps\Project 1\Capture day 1\Session 1\subject.ASF
:FULLY-SPECIFIED
:DEGREES
482
root 0.186073 17.3365 -6.4516 7.96786 -0.420943 -0.587448
lowerback 3.34728 0.138292 -0.711291
upperback 5.60695 0.143516 1.19637
thorax 3.89638 0.0151693 1.63228
lowerneck -12.055 0.177546 -1.4184
upperneck 34.9728 0.466566 0.516486
head 13.8857 0.0860882 0.529441
rclavicle -7.95139e-016 -7.95139e-016
rhumerus -41.4154 -21.6074 -67.6564
rradius 26.0849
rwrist 32.2439
rhand -18.1396 -22.5591
rfingers 7.12502
rthumb 8.13556 -52.3825
lclavicle -7.95139e-016 -7.95139e-016
lhumerus -36.3025 4.00075 80.2495
lradius 20.6823
lwrist 14.3407
lhand -29.5097 -10.0963
lfingers 7.12502
lthumb -2.84397 19.8645
rfemur -21.7606 -2.57048 18.8234
rtibia 34.9912
rfoot -19.6681 -1.67088
rtoes 6.90477
lfemur -20.4943 6.09776 -19.2052
ltibia 31.6675
lfoot -15.9657 9.18877
ltoes 1.70881
483
root 0.187149 17.3366 -6.45207 7.9612 -0.428435 -0.582354
lowerback 3.34231 0.139284 -0.713926
upperback 5.60571 0.14494 1.19252
thorax 3.89783 0.0158588 1.62979
lowerneck -12.0593 0.178784 -1.42423
upperneck 34.965 0.470896 0.51418
head 13.8832 0.0869252 0.530163
rclavicle -4.96962e-015 -9.93923e-015
rhumerus -41.3915 -21.5706 -67.6913
rradius 26.1023
rwrist 32.2654
rhand -18.2206 -22.5657
rfingers 7.12502
rthumb 8.05747 -52.3921
lclavicle -4.96962e-015 -9.93923e-015
lhumerus -36.2958 3.99526 80.2627
lradius 20.6795
lwrist 14.3285
lhand -29.4984 -10.1148
lfingers 7.12502
lthumb -2.83302 19.8462
rfemur -21.7532 -2.57344 18.8125
rtibia 34.987
rfoot -19.6668 -1.66553
rtoes 6.90243
lfemur -20.4807 6.10569 -19.2151
ltibia 31.6567
lfoot -15.9649 9.1843
ltoes 1.74574
484
root 0.188138 17.3366 -6.45242 7.95466 -0.436142 -0.578597
lowerback 3.33472 0.141198 -0.715584
upperback 5.60564 0.147594 1.18879
thorax 3.90194 0.0171734 1.62689
lowerneck -12.0613 0.178908 -1.42912
upperneck 34.9533 0.473274 0.511919
head 13.8783 0.0870839 0.530415
rclavicle 2.08724e-015 8.74653e-015
rhumerus -41.3685 -21.5392 -67.7234
rradius 26.1171
rwrist 32.2892
rhand -18.2976 -22.5804
rfingers 7.12502
rthumb 7.98313 -52.4096
lclavicle 2.08724e-015 8.74653e-015
lhumerus -36.2877 3.99608 80.2698
lradius 20.6781
lwrist 14.3148
lhand -29.4789 -10.1236
lfingers 7.12502
lthumb -2.81421 19.8376
rfemur -21.7459 -2.57437 18.803
rtibia 34.9832
rfoot -19.6655 -1.65958
rtoes 6.89831
lfemur -20.4688 6.11251 -19.2233
ltibia 31.6493
lfoot -15.9658 9.18281
ltoes 1.78089
485
root 0.189049 17.3366 -6.45261 7.94875 -0.444995 -0.57572
lowerback 3.3253 0.144242 -0.7158
upperback 5.60453 0.151795 1.18427
thorax 3.90595 0.0193427 1.62237
lowerneck -12.0614 0.178126 -1.42935
upperneck 34.9438 0.47416 0.506444
head 13.8741 0.0867791 0.528335
rclavicle -2.28602e-015 -4.96962e-015
rhumerus -41.3466 -21.5263 -67.7442
rradius 26.1216
rwrist 32.3108
rhand -18.3535 -22.5899
rfingers 7.12502
rthumb 7.92913 -52.4212
lclavicle -2.28602e-015 -4.96962e-015
lhumerus -36.2805 3.998 80.2728
lradius 20.667
lwrist 14.2899
lhand -29.4876 -10.1655
lfingers 7.12502
lthumb -2.8226 19.7955
rfemur -21.7394 -2.57271 18.7945
rtibia 34.9799
rfoot -19.6651 -1.65296
rtoes 6.88721
lfemur -20.4584 6.12072 -19.2306
ltibia 31.6444
lfoot -15.9676 9.18274
ltoes 1.80259
486
root 0.189811 17.3364 -6.45286 7.94401 -0.454153 -0.576956
lowerback 3.31573 0.148302 -0.712633
upperback 5.60229 0.157363 1.18023
thorax 3.9088 0.0223315 1.61646
lowerneck -12.0709 0.177965 -1.4199
upperneck 34.9453 0.475828 0.494442
head 13.8769 0.0871464 0.522142
rclavicle 1.19271e-015 3.57812e-015
rhumerus -41.3265 -21.5078 -67.7683
rradius 26.1381
rwrist 32.2796
rhand -18.3567 -22.6101
rfingers 7.12502
rthumb 7.92611 -52.4415
lclavicle 1.19271e-015 3.57812e-015
lhumerus -36.2727 4.00912 80.2667
lradius 20.6575
lwrist 14.27
lhand -29.4806 -10.1669
lfingers 7.12502
lthumb -2.81581 19.7942
rfemur -21.7354 -2.56719 18.7914
rtibia 34.9772
rfoot -19.6637 -1.64944
rtoes 6.86652
lfemur -20.4517 6.12922 -19.2327
ltibia 31.6429
lfoot -15.9711 9.18286
ltoes 1.81604
487
root 0.190489 17.3362 -6.45301 7.93808 -0.463311 -0.577772
lowerback 3.30834 0.152628 -0.711464
upperback 5.59878 0.163255 1.17698
thorax 3.90909 0.0254081 1.61246
lowerneck -12.0796 0.177006 -1.4101
upperneck 34.9513 0.476675 0.481158
head 13.8816 0.0870137 0.515272
rclavicle 9.93923e-017 1.39149e-015
rhumerus -41.3083 -21.4917 -67.7864
rradius 26.1615
rwrist 32.2026
rhand -18.3046 -22.6209
rfingers 7.12502
rthumb 7.97633 -52.4504
lclavicle 9.93923e-017 1.39149e-015
lhumerus -36.2655 4.03284 80.2533
lradius 20.6467
lwrist 14.2511
lhand -29.4636 -10.1305
lfingers 7.12502
lthumb -2.79941 19.8308
rfemur -21.7305 -2.56 18.7886
rtibia 34.9751
rfoot -19.6627 -1.64853
rtoes 6.83688
lfemur -20.4446 6.13798 -19.2346
ltibia 31.6436
lfoot -15.9759 9.18253
ltoes 1.82163
